<?xml version="1.0" encoding="utf-8"?>
<!-- Generated by IcoMoon.io -->
<!DOCTYPE svg PUBLIC "-//W3C//DTD SVG 1.1//EN" "http://www.w3.org/Graphics/SVG/1.1/DTD/svg11.dtd">
<svg version="1.1" xmlns="http://www.w3.org/2000/svg" xmlns:xlink="http://www.w3.org/1999/xlink" width="32" height="32" viewBox="0 0 32 32">
<path d="M31.733 5.6c-0.267-1.333-0.533-3.067-1.067-4.267-1.2-0.533-2.8-0.8-4.267-0.933-1.733-0.133-3.333-0.4-5.067-0.4-11.733 0-21.333 9.6-21.333 21.333 0 1.733-0.133 3.467 0.267 5.067 0.267 1.333 0.533 3.067 1.067 4.267 1.2 0.533 2.933 0.8 4.267 1.067 1.733 0.133 3.333 0.267 5.067 0.267 11.733 0 21.333-9.6 21.333-21.333 0-1.733 0-3.333-0.267-5.067zM28.533 3.467c0.8 2.133 0.8 4.8 0.8 7.2 0 0.4 0 0.8 0 1.2-4-2-7.2-5.2-9.2-9.2 0.4 0 0.8 0 1.2 0 2.4 0 5.067 0 7.2 0.8zM3.6 28.4c-0.8-2.133-0.933-4.667-0.933-7.067 0-0.4 0-0.8 0-1.2 4 2 7.2 5.2 9.2 9.2-0.4 0-0.8 0-1.2 0-2.4 0-4.933-0.133-7.067-0.933zM13.333 29.067c-2.267-4.533-6-8.133-10.533-10.533 1.333-8 7.733-14.4 15.867-15.6 2.267 4.533 6 8.133 10.533 10.533-1.333 8-7.733 14.4-15.867 15.6z"></path>
<path d="M21.067 10.8c-0.267-0.267-0.667-0.267-0.933 0l-1.467 1.467-1.333-1.467c-0.267-0.267-0.667-0.267-0.933 0s-0.267 0.667 0 0.933l1.467 1.467-1.867 1.867-1.467-1.467c-0.267-0.267-0.667-0.267-0.933 0s-0.267 0.667 0 0.933l1.467 1.467-1.867 1.867-1.467-1.467c-0.267-0.267-0.667-0.267-0.933 0s-0.267 0.667 0 0.933l1.467 1.467-1.467 1.467c-0.267 0.267-0.267 0.667 0 0.933s0.667 0.267 0.933 0l1.467-1.467 1.467 1.467c0.267 0.267 0.667 0.267 0.933 0s0.267-0.667 0-0.933l-1.467-1.467 1.867-1.867 1.467 1.467c0.267 0.267 0.667 0.267 0.933 0s0.267-0.667 0-0.933l-1.467-1.467 1.867-1.867 1.467 1.467c0.267 0.267 0.667 0.267 0.933 0s0.267-0.667 0-0.933l-1.467-1.467 1.467-1.467c0.133-0.267 0.133-0.667-0.133-0.933z"></path>
</svg>
