<?xml version="1.0" encoding="utf-8"?>
<!-- Generated by IcoMoon.io -->
<!DOCTYPE svg PUBLIC "-//W3C//DTD SVG 1.1//EN" "http://www.w3.org/Graphics/SVG/1.1/DTD/svg11.dtd">
<svg version="1.1" xmlns="http://www.w3.org/2000/svg" xmlns:xlink="http://www.w3.org/1999/xlink" width="32" height="32" viewBox="0 0 32 32">
<path d="M16 0c-8.8 0-16 7.2-16 16s7.2 16 16 16 16-7.2 16-16-7.2-16-16-16zM14.8 29.333c-2.933-0.267-5.6-1.467-7.733-3.333l8.933-8.933 2.933 2.933c-2.4 2.4-3.867 5.6-4.133 9.333zM19.867 20.8l5.067 5.067c-2.4 2.133-5.467 3.467-8.8 3.467 0.267-3.333 1.6-6.267 3.733-8.533zM16.933 16l8.933-8.933c1.867 2.133 3.067 4.667 3.333 7.733-3.6 0.267-6.933 1.867-9.467 4.133l-2.8-2.933zM7.067 6.133c2.4-2.133 5.467-3.467 8.8-3.467-0.267 3.333-1.6 6.267-3.733 8.533l-5.067-5.067zM17.2 2.667c2.933 0.267 5.6 1.467 7.733 3.333l-8.933 9.067-2.933-2.933c2.4-2.533 3.867-5.733 4.133-9.467zM6.133 7.067l5.067 5.067c-2.267 2.133-5.2 3.467-8.533 3.867 0-3.467 1.333-6.533 3.467-8.933zM2.667 17.2c3.6-0.267 6.933-1.867 9.467-4.133l2.933 2.933-8.933 8.933c-1.867-2.133-3.067-4.667-3.467-7.733zM25.867 24.933l-5.067-5.067c2.267-2.133 5.2-3.467 8.533-3.733 0 3.333-1.333 6.4-3.467 8.8z"></path>
</svg>
