<?xml version="1.0" encoding="utf-8"?>
<!-- Generated by IcoMoon.io -->
<!DOCTYPE svg PUBLIC "-//W3C//DTD SVG 1.1//EN" "http://www.w3.org/Graphics/SVG/1.1/DTD/svg11.dtd">
<svg version="1.1" xmlns="http://www.w3.org/2000/svg" xmlns:xlink="http://www.w3.org/1999/xlink" width="32" height="32" viewBox="0 0 32 32">
<path d="M16 0c-8.8 0-16 7.2-16 16s7.2 16 16 16 16-7.2 16-16-7.2-16-16-16zM28.667 12l-6 2-6.533-5.333v-5.867c5.867-0.133 10.933 3.733 12.533 9.2zM19.6 21.333h-7.2l-2.267-6.4 5.867-4.8 5.867 4.933-2.267 6.267zM14.8 2.667v6.8l-5.467 4.4-6-2c1.6-4.933 6-8.667 11.467-9.2zM2.667 16c0-0.933 0.133-1.867 0.267-2.8l5.867 1.867 2.533 7.333-3.2 4.4c-3.333-2.4-5.467-6.4-5.467-10.8zM9.2 27.467l3.6-4.8h7.867v-0.133l3.067 4.267c-2.133 1.6-4.8 2.533-7.733 2.533-2.4 0-4.8-0.667-6.8-1.867zM24.8 26l-3.6-4.933 2-5.867 5.867-1.867c0.133 0.933 0.267 1.867 0.267 2.8 0 3.867-1.733 7.467-4.533 9.867z"></path>
</svg>
