<?xml version="1.0" encoding="utf-8"?>
<!-- Generated by IcoMoon.io -->
<!DOCTYPE svg PUBLIC "-//W3C//DTD SVG 1.1//EN" "http://www.w3.org/Graphics/SVG/1.1/DTD/svg11.dtd">
<svg version="1.1" xmlns="http://www.w3.org/2000/svg" xmlns:xlink="http://www.w3.org/1999/xlink" width="32" height="32" viewBox="0 0 32 32">
<path fill="none" stroke="#000" stroke-width="1.28" stroke-miterlimit="10" stroke-linecap="round" stroke-linejoin="round" d="M11.9 30.669l-9.741-27.208"></path>
<path fill="none" stroke="#000" stroke-width="1.28" stroke-miterlimit="10" stroke-linecap="round" stroke-linejoin="round" d="M2.847 5.382c0 0 3.783-4.102 10.355-4.102 4 0 5.828 2.607 9.129 2.607 3.299 0 6.468-2.607 6.468-2.607v16.941c0 0-2.383 1.304-5.213 1.304-2.829 0-3.984-1.304-7.819-1.304-3.637 0-7.056 3.53-7.056 3.53l-5.864-16.37z"></path>
<path d="M2.847 5.382c0 0 1.963-2.079 4.612-2.934l2.025 5.199c0 0-2.615 0.941-4.75 2.947l-1.82-5.021z"></path>
<path d="M9.484 7.647l2.184 5.606c0 0 1.717-0.611 2.899-0.611s2.354 0.173 2.354 0.173l-1.585-5.962c0 0-0.448-0.063-1-0.063-2.646 0-4.851 0.856-4.851 0.856z"></path>
<path d="M6.861 16.497l1.85 5.254c0 0 2.558-2.452 4.995-3.142l-2.036-5.356c-2.346 0.904-4.808 3.244-4.808 3.244z"></path>
<path d="M13.873 1.351l1.464 5.503c1.184 0 4.476 1.613 4.476 1.613l-1.298-5.683c-0.744-0.278-2.693-1.341-4.642-1.434z"></path>
<path d="M16.921 12.815l1.507 5.665c0.759 0 2.935 0.927 3.882 0.927l-1.272-5.569c-1.225-0.319-3.208-0.895-4.116-1.023z"></path>
<path d="M19.812 8.468l1.226 5.371c0 0 1.226 0.227 2.068 0.227s1.89-0.191 1.89-0.191l-0.398-4.918c0 0-0.812 0.252-1.796 0.252-1.537 0-2.989-0.741-2.989-0.741z"></path>
<path d="M24.168 3.629l0.431 5.327c0 0 2.003-0.503 4.202-2.166l-0.001-5.51c-2.525 1.934-4.631 2.349-4.631 2.349z"></path>
<path d="M24.996 13.875c0 0 1.929-0.358 3.802-1.446v5.793c-1.995 0.957-3.367 1.131-3.367 1.131l-0.435-5.478z"></path>
</svg>
