<?xml version="1.0" encoding="utf-8"?>
<!-- Generated by IcoMoon.io -->
<!DOCTYPE svg PUBLIC "-//W3C//DTD SVG 1.1//EN" "http://www.w3.org/Graphics/SVG/1.1/DTD/svg11.dtd">
<svg version="1.1" xmlns="http://www.w3.org/2000/svg" xmlns:xlink="http://www.w3.org/1999/xlink" width="32" height="32" viewBox="0 0 32 32">
<path fill="none" stroke="#000" stroke-width="1.28" stroke-miterlimit="10" stroke-linecap="round" stroke-linejoin="round" d="M23.3 1.28c-4.627 0-10.805 1.949-15.434 6.578-7.198 7.2-7.937 18.133-4.898 21.173 1.085 1.086 3.177 1.689 5.746 1.689 4.625 0 10.798-1.958 15.427-6.586 7.201-7.2 7.916-18.154 4.899-21.173-1.079-1.079-3.169-1.681-5.74-1.681v0z"></path>
<path fill="none" stroke="#000" stroke-width="1.28" stroke-miterlimit="10" stroke-linecap="round" stroke-linejoin="round" d="M28.8 3.2l-5.76 5.76"></path>
<path fill="none" stroke="#000" stroke-width="1.28" stroke-miterlimit="10" stroke-linecap="round" stroke-linejoin="round" d="M8.96 23.040l-5.76 5.76"></path>
<path fill="none" stroke="#000" stroke-width="1.28" stroke-miterlimit="10" stroke-linecap="round" stroke-linejoin="round" d="M21.12 10.88l-10.24 10.24"></path>
<path fill="none" stroke="#000" stroke-width="1.28" stroke-miterlimit="10" stroke-linecap="round" stroke-linejoin="round" d="M22.080 15.68l-5.76-5.76"></path>
<path fill="none" stroke="#000" stroke-width="1.28" stroke-miterlimit="10" stroke-linecap="round" stroke-linejoin="round" d="M18.88 18.88l-5.76-5.76"></path>
<path fill="none" stroke="#000" stroke-width="1.28" stroke-miterlimit="10" stroke-linecap="round" stroke-linejoin="round" d="M15.68 22.080l-5.76-5.76"></path>
</svg>
