<?xml version="1.0" encoding="utf-8"?>
<!-- Generated by IcoMoon.io -->
<!DOCTYPE svg PUBLIC "-//W3C//DTD SVG 1.1//EN" "http://www.w3.org/Graphics/SVG/1.1/DTD/svg11.dtd">
<svg version="1.1" xmlns="http://www.w3.org/2000/svg" xmlns:xlink="http://www.w3.org/1999/xlink" width="32" height="32" viewBox="0 0 32 32">
<path fill="none" stroke="#000" stroke-width="1.28" stroke-miterlimit="10" stroke-linecap="round" stroke-linejoin="round" d="M8.47 24.89c0.374 0.374 0.374 0.986 0 1.359l-4.684 4.682c-0.373 0.374-1.364 0.199-2.14-0.577s-0.952-1.766-0.578-2.141l4.683-4.682c0.374-0.374 0.984-0.374 1.359 0l1.359 1.359z"></path>
<path fill="none" stroke="#000" stroke-width="1.28" stroke-miterlimit="10" stroke-linecap="round" stroke-linejoin="round" d="M6.788 5.553c1.041 0.221 2.307 0.771 3.558 2.021 1.252 1.252 1.802 2.521 2.024 3.56M16.328 7.265c-1.052-0.209-2.351-0.755-3.634-2.038-1.317-1.316-1.857-2.65-2.054-3.717"></path>
<path fill="none" stroke="#000" stroke-width="1.28" stroke-miterlimit="10" stroke-linecap="round" stroke-linejoin="round" d="M9.638 15.787c0.128 1.466-0.353 5.602-1.867 7.116l-0.497 0.497"></path>
<path fill="none" stroke="#000" stroke-width="1.28" stroke-miterlimit="10" stroke-linecap="round" stroke-linejoin="round" d="M12.125 21.098c-0.513 0.075-1.034 0.179-1.541 0.319 0.15-0.541 0.257-1.1 0.333-1.646"></path>
<path fill="none" stroke="#000" stroke-width="1.28" stroke-miterlimit="10" stroke-linecap="round" stroke-linejoin="round" d="M8.599 24.728l0.497-0.499c1.516-1.515 5.652-1.976 7.117-1.848"></path>
<path fill="none" stroke="#000" stroke-width="1.28" stroke-miterlimit="10" stroke-linecap="round" stroke-linejoin="round" d="M16.64 6.4c0 2.828-2.292 5.12-5.12 5.12s-5.12-2.292-5.12-5.12c0-2.828 2.292-5.12 5.12-5.12s5.12 2.292 5.12 5.12z"></path>
<path fill="none" stroke="#000" stroke-width="1.28" stroke-miterlimit="10" stroke-linecap="round" stroke-linejoin="round" d="M9.82 13.145c-0.581 2.822 0.108 5.352 1.895 7.14 3.386 3.386 9.431 2.829 15.090-2.83s5.575-11.063 2.189-14.449c-2.769-2.769-6.891-3.329-11.396-0.344"></path>
<path fill="none" stroke="#000" stroke-width="1.28" stroke-miterlimit="10" stroke-linecap="round" stroke-linejoin="round" d="M18.308 5.437c3.468-2.609 6.679-2.665 8.799-0.545 2.499 2.499 1.975 6.513-2.189 10.676-4.164 4.165-8.817 5.329-11.316 2.83-1.214-1.215-1.564-2.938-1.124-4.867"></path>
</svg>
